<?xml version="1.0" encoding="utf-8"?>
<svg xmlns="http://www.w3.org/2000/svg"
	xmlns:xlink="http://www.w3.org/1999/xlink"
	width="23px" height="20px" viewBox="0 0 23 20">
<g><path fillRule="evenodd" d="M 2.12 4.83C 2.12 4.83 20.12 4.83 20.12 4.83 21.22 4.83 22.12 3.94 22.12 2.83 22.12 1.73 21.22 0.83 20.12 0.83 20.12 0.83 2.12 0.83 2.12 0.83 1.01 0.83 0.12 1.73 0.12 2.83 0.12 3.94 1.01 4.83 2.12 4.83" fill="rgb(255,21,85)"/><path fillRule="evenodd" d="M 2.12 12.33C 2.12 12.33 20.12 12.33 20.12 12.33 21.22 12.33 22.12 11.44 22.12 10.33 22.12 9.23 21.22 8.33 20.12 8.33 20.12 8.33 2.12 8.33 2.12 8.33 1.01 8.33 0.12 9.23 0.12 10.33 0.12 11.44 1.01 12.33 2.12 12.33" fill="rgb(255,21,85)"/><path fillRule="evenodd" d="M 2.12 19.83C 2.12 19.83 20.12 19.83 20.12 19.83 21.22 19.83 22.12 18.94 22.12 17.83 22.12 16.73 21.22 15.83 20.12 15.83 20.12 15.83 2.12 15.83 2.12 15.83 1.01 15.83 0.12 16.73 0.12 17.83 0.12 18.94 1.01 19.83 2.12 19.83" fill="rgb(255,21,85)"/></g></svg>